<svg xmlns="http://www.w3.org/2000/svg" version="1.1" xmlns:xlink="http://www.w3.org/1999/xlink" xmlns:svgjs="http://svgjs.dev/svgjs" width="2000" height="2000" viewBox="0 0 2000 2000"><g transform="matrix(1,0,0,1,-0.9999999999998863,-0.9999999999996589)"><svg viewBox="0 0 280 280" data-background-color="#ffffff" preserveAspectRatio="xMidYMid meet" height="2000" width="2000" xmlns="http://www.w3.org/2000/svg" xmlns:xlink="http://www.w3.org/1999/xlink"><g id="tight-bounds" transform="matrix(1,0,0,1,0.13999999999998636,0.13999999999995794)"><svg viewBox="0 0 279.72 279.72" height="279.72" width="279.72"><g><svg viewBox="0 0 279.72 279.72" height="279.72" width="279.72"><g><svg viewBox="0 0 279.72 279.72" height="279.72" width="279.72"><g id="textblocktransform"><svg viewBox="0 0 279.72 279.72" height="279.72" width="279.72" id="textblock"><g><svg viewBox="0 0 279.72 279.72" height="279.72" width="279.72"><g transform="matrix(1,0,0,1,57.446704652707865,57.446704652707865)"><svg viewBox="0 0 164.8265906945843 164.8265906945843" height="164.8265906945843" width="164.8265906945843"><g id="icon-0"><circle r="82" cx="82.41329534729215" cy="82.41329534729215" fill="#000000" data-fill-palette-color="accent"></circle><svg xmlns="http://www.w3.org/2000/svg" xmlns:xlink="http://www.w3.org/1999/xlink" version="1.1" x="24.72398860418764" y="24.723988604187646" viewBox="24.998 25 39.998999999999995 40" enable-background="new 0 0 90 90" xml:space="preserve" height="115.378613486209" width="115.378613486209" class="icon-jxe-0" data-fill-palette-color="quaternary" id="jxe-0"><path d="M63.738 25H24.998V65H64.997V25zM62.023 26.714L58.594 30.143H31.353L27.924 26.714zM36.495 35.286L33.067 31.857H56.881L53.452 35.286zM52.996 37V53H36.997V37zM35.283 36.498V53.455L31.854 56.884V33.069zM36.447 54.714H53.5L56.929 58.143H33.018zM54.711 53.502V36.451L58.141 33.022V56.931zM26.712 27.926L30.14 31.355V58.597L26.712 62.026zM27.876 63.286L31.304 59.857H58.642L62.071 63.286zM59.854 58.645V31.308L63.283 27.879V62.073z" fill="#ffffff" data-fill-palette-color="quaternary"></path></svg></g></svg></g><g id="text-0"><path d="M35.192 91.414l1.926 0.68-7.059 20.001-0.751-0.265-18.962-25.622c-0.143 0.404-0.415 1.341-0.818 2.809v0l-3.678 13.429-1.849-0.652 6.658-18.865 0.751 0.265 18.965 25.612c0.15-0.424 0.422-1.36 0.818-2.808v0z" fill="#000000" data-fill-palette-color="primary"></path><path d="M29.586 77.59v0c-1.682-1.182-3.036-2.583-4.062-4.202-1.031-1.623-1.707-3.355-2.028-5.195-0.321-1.84-0.271-3.694 0.151-5.56 0.42-1.877 1.219-3.653 2.397-5.33v0c1.182-1.682 2.585-3.039 4.208-4.07 1.614-1.029 3.341-1.705 5.181-2.026 1.84-0.321 3.698-0.272 5.575 0.149 1.867 0.422 3.642 1.224 5.323 2.405v0c1.677 1.178 3.032 2.576 4.068 4.194 1.031 1.623 1.704 3.353 2.02 5.189 0.321 1.84 0.274 3.695-0.143 5.566-0.42 1.877-1.221 3.656-2.403 5.339v0c-1.178 1.677-2.579 3.03-4.202 4.061-1.619 1.025-3.349 1.699-5.189 2.02-1.834 0.325-3.69 0.278-5.566-0.142-1.877-0.42-3.653-1.219-5.33-2.398zM31.336 75.1v0c2.222 1.562 4.445 2.537 6.668 2.927 2.223 0.389 4.296 0.198 6.218-0.573 1.928-0.767 3.55-2.086 4.866-3.957v0c1.319-1.877 2.013-3.853 2.08-5.927 0.074-2.07-0.455-4.089-1.585-6.057-1.125-1.964-2.79-3.72-4.995-5.27v0c-2.206-1.55-4.42-2.52-6.644-2.909-2.217-0.385-4.296-0.198-6.235 0.561-1.934 0.763-3.56 2.083-4.879 3.96v0c-1.315 1.872-2.006 3.837-2.072 5.896-0.06 2.063 0.465 4.08 1.577 6.05 1.106 1.967 2.773 3.733 5.001 5.299z" fill="#000000" data-fill-palette-color="primary"></path><path d="M73.409 49.673l-7.023 5.307-16.881-22.341 7.023-5.307c2.471-1.867 4.975-3.026 7.512-3.474 2.531-0.445 4.942-0.218 7.232 0.679 2.281 0.896 4.267 2.463 5.958 4.7v0c1.687 2.232 2.652 4.571 2.895 7.016 0.233 2.443-0.207 4.824-1.322 7.143-1.125 2.317-2.923 4.41-5.394 6.277zM57.107 28.098v0l-4.848 3.663 15.723 20.809 4.848-3.663c3.085-2.331 4.805-5.069 5.16-8.213 0.35-3.14-0.713-6.347-3.187-9.622v0c-2.475-3.275-5.27-5.174-8.386-5.695-3.121-0.517-6.225 0.39-9.31 2.721z" fill="#000000" data-fill-palette-color="primary"></path><path d="M99.507 34.645l-2.485 1.121-11.511-25.525 2.485-1.121z" fill="#000000" data-fill-palette-color="primary"></path><path d="M111.756 31.193l-2.871 0.537 5.436-29.502 2.439-0.456 15.714 25.549-2.871 0.537-7.279-11.989-8.934 1.669zM115.214 4.17l-0.241 0.045-1.478 12.327 8.292-1.549z" fill="#000000" data-fill-palette-color="primary"></path><path d="M164.129 25.741l0.234 0.017-0.409 2.418c-0.77 0.265-1.696 0.479-2.78 0.639-1.077 0.168-2.166 0.271-3.268 0.308-1.102 0.044-2.077 0.035-2.926-0.026v0c-2.153-0.155-4.123-0.665-5.91-1.531-1.781-0.865-3.31-1.999-4.588-3.401-1.271-1.402-2.23-3.013-2.877-4.835-0.647-1.828-0.895-3.777-0.747-5.849v0c0.149-2.078 0.675-3.972 1.576-5.681 0.902-1.717 2.082-3.178 3.541-4.383 1.465-1.205 3.141-2.105 5.026-2.7 1.893-0.601 3.916-0.824 6.068-0.669v0c0.876 0.063 1.856 0.198 2.94 0.406 1.083 0.214 2.133 0.471 3.15 0.769 1.022 0.306 1.883 0.63 2.581 0.974v0l-0.364 2.216-0.234-0.017c-0.92-0.974-2.106-1.755-3.558-2.345-1.46-0.583-2.987-0.932-4.583-1.046v0c-2.39-0.172-4.539 0.24-6.447 1.236-1.901 1.003-3.438 2.486-4.61 4.45-1.171 1.957-1.855 4.293-2.05 7.009v0c-0.197 2.737 0.145 5.153 1.024 7.25 0.88 2.097 2.182 3.774 3.908 5.032 1.731 1.264 3.806 1.984 6.223 2.157v0c1.813 0.13 3.518-0.04 5.115-0.512 1.597-0.479 2.919-1.107 3.965-1.886z" fill="#000000" data-fill-palette-color="primary"></path><path d="M198.316 27.645l-6.913-2.621 0.34-0.898 9.463 3.587-3.859 10.18c-1.58 0.711-3.324 1.077-5.232 1.096-1.908 0.019-3.883-0.358-5.926-1.133v0c-2.094-0.794-3.896-1.87-5.405-3.228-1.509-1.358-2.692-2.906-3.548-4.643-0.852-1.728-1.335-3.557-1.448-5.485-0.113-1.929 0.198-3.864 0.934-5.806v0c0.738-1.948 1.788-3.603 3.149-4.965 1.363-1.369 2.938-2.421 4.724-3.157 1.792-0.733 3.702-1.105 5.73-1.115 2.03-0.017 4.093 0.372 6.187 1.166v0c0.898 0.34 1.855 0.772 2.872 1.296 1.008 0.528 1.96 1.081 2.855 1.661 0.892 0.586 1.619 1.156 2.18 1.711v0l-0.984 2.019-0.22-0.083c-0.669-1.251-1.618-2.368-2.847-3.351-1.225-0.974-2.624-1.759-4.196-2.355v0c-2.343-0.888-4.599-1.139-6.77-0.754-2.173 0.392-4.114 1.356-5.825 2.892-1.708 1.529-3.045 3.567-4.01 6.114v0c-0.963 2.54-1.313 4.952-1.05 7.236 0.263 2.284 1.079 4.29 2.448 6.017 1.367 1.734 3.221 3.045 5.564 3.933v0c1.445 0.548 2.861 0.855 4.248 0.922 1.387 0.067 2.67-0.102 3.851-0.506v0z" fill="#000000" data-fill-palette-color="primary"></path><path d="M216.437 55.369l-10.023-7.175 16.299-22.769 9.923 7.103-1.142 1.595-5.153-4.819c-0.907-0.85-1.532-1.398-1.875-1.644v0l-7.103 9.923c0.282 0.202 0.979 0.65 2.089 1.345v0l5.563 3.492-1.07 1.495-5.099-4.14c-1.015-0.827-1.664-1.342-1.947-1.544v0l-7.804 10.902c0.388 0.277 1.119 0.7 2.194 1.269v0l6.289 3.372z" fill="#000000" data-fill-palette-color="primary"></path><path d="M260.658 64.729l1.805 2.245-21.821 17.547-1.702-2.116 20.014-16.095-0.154-0.191-20.534 4.09-0.774-0.963 5.857-18.837-0.147-0.183-17.753 15.403-1.702-2.116 22.879-17.128 0.506 0.628-6.69 21.551 0.147 0.183z" fill="#000000" data-fill-palette-color="primary"></path><path d="M245.588 94.143v0l2.32-0.66 0.087 0.218c-0.456 1.303-0.675 2.655-0.659 4.055 0.01 1.403 0.251 2.699 0.725 3.888v0c0.67 1.682 1.678 2.86 3.023 3.533 1.346 0.673 2.799 0.698 4.362 0.076v0c0.866-0.345 1.593-0.858 2.179-1.539 0.593-0.683 1.096-1.617 1.511-2.801 0.421-1.187 0.771-2.726 1.051-4.618v0c0.196-1.309 0.443-2.584 0.74-3.824 0.291-1.237 0.765-2.346 1.423-3.326 0.657-0.98 1.619-1.722 2.883-2.226v0c1.885-0.751 3.675-0.673 5.371 0.234 1.693 0.901 2.984 2.468 3.873 4.701v0c0.393 0.987 0.713 2.094 0.961 3.321 0.245 1.222 0.33 2.206 0.254 2.955v0l-2.162 0.642-0.087-0.218c0.972-2.029 1.02-4.144 0.143-6.345v0c-0.633-1.587-1.543-2.705-2.732-3.352-1.189-0.648-2.466-0.699-3.833-0.155v0c-1.018 0.406-1.784 1.022-2.297 1.85-0.522 0.824-0.906 1.772-1.152 2.844-0.247 1.073-0.449 2.202-0.608 3.386v0c-0.202 1.37-0.449 2.726-0.743 4.067-0.303 1.337-0.821 2.548-1.554 3.631-0.727 1.081-1.846 1.923-3.357 2.526v0c-1.391 0.554-2.74 0.718-4.048 0.491-1.313-0.224-2.501-0.806-3.564-1.745-1.063-0.939-1.906-2.19-2.529-3.752v0c-0.396-0.993-0.736-2.206-1.021-3.639-0.281-1.442-0.468-2.848-0.56-4.218z" fill="#000000" data-fill-palette-color="primary"></path><path d="M8.778 142.554c0-1.808 1.466-3.273 3.274-3.273 1.808 0 3.273 1.466 3.273 3.273 0 1.808-1.466 3.273-3.273 3.274-1.808 0-3.273-1.466-3.274-3.274z" fill="#000000" data-fill-palette-color="primary"></path><path d="M265.866 142.554c0-1.808 1.466-3.273 3.273-3.273 1.808 0 3.273 1.466 3.274 3.273 0 1.808-1.466 3.273-3.274 3.274-1.808 0-3.273-1.466-3.273-3.274z" fill="#000000" data-fill-palette-color="primary"></path></g><g id="text-1"><path d="M12.301 182.718l9.482-8.017 0.369 1.115-8.136 6.851 0.029 0.088 6.88 0.447 2.868-2.421 0.368 1.115-8.113 6.822 0.032 0.097 10.369 0.004 0.368 1.115-12.395-0.797-0.109-0.33 6.169-5.222-8.069-0.528z" fill="#000000" data-fill-palette-color="primary"></path><path d="M19.831 201.982l-2.019-4.545 10.322-4.585 1.998 4.498-0.728 0.324-0.799-2.73c-0.146-0.479-0.253-0.796-0.322-0.951v0l-4.498 1.998c0.055 0.124 0.206 0.422 0.452 0.893v0l1.223 2.351-0.681 0.303-0.924-2.484c-0.184-0.499-0.304-0.811-0.36-0.935v0l-4.937 2.193c0.077 0.174 0.242 0.47 0.495 0.886v0l1.496 2.464z" fill="#000000" data-fill-palette-color="primary"></path><path d="M22.032 206.089l-0.574-1.025 11.974-1.737 0.49 0.873-7.73 9.309-0.574-1.025 3.635-4.332-1.793-3.198zM32.807 203.924l-0.05-0.09-4.903 1.028 1.663 2.966z" fill="#000000" data-fill-palette-color="primary"></path><path d="M28.579 217.144l9.334-6.359 1.219 1.789c0.64 0.94 0.939 1.807 0.895 2.603-0.041 0.786-0.416 1.42-1.125 1.903v0c-0.551 0.376-1.119 0.528-1.703 0.456-0.588-0.077-1.153-0.38-1.695-0.909v0l-0.076 0.052c0.28 0.666 0.332 1.335 0.156 2.006-0.186 0.67-0.533 1.315-1.042 1.934v0c-0.476 0.571-0.818 1.048-1.028 1.429-0.211 0.391-0.32 0.733-0.327 1.026-0.003 0.298 0.056 0.608 0.176 0.93v0l-0.076 0.052-0.373-0.549c-0.268-0.394-0.418-0.765-0.451-1.114-0.026-0.353 0.07-0.731 0.289-1.136 0.215-0.41 0.564-0.895 1.048-1.455v0c0.741-0.884 1.157-1.669 1.248-2.358 0.091-0.688-0.072-1.339-0.49-1.952v0l-0.052-0.076 0.237-0.161 0.051 0.076c0.977 1.435 2.124 1.704 3.441 0.807v0c1.3-0.885 1.492-2 0.576-3.345v0l-0.598-0.878-9.014 6.14z" fill="#000000" data-fill-palette-color="primary"></path><path d="M41.849 234.107l-0.781-0.864 3.548-3.202 2.159-7.33 0.821 0.909-1.971 6.624 0.061 0.068 6.311-1.818 0.821 0.909-7.256 1.351z" fill="#000000" data-fill-palette-color="primary"></path><path d="M50.372 234.84v0c0.562-0.612 1.195-1.08 1.899-1.404 0.699-0.329 1.424-0.509 2.174-0.541 0.755-0.027 1.495 0.093 2.22 0.36 0.729 0.263 1.397 0.673 2.004 1.23v0c0.612 0.562 1.08 1.195 1.403 1.899 0.329 0.699 0.509 1.424 0.541 2.174 0.032 0.75-0.083 1.49-0.346 2.219-0.268 0.725-0.683 1.393-1.244 2.005v0c-0.562 0.612-1.192 1.082-1.891 1.41-0.704 0.324-1.431 0.502-2.182 0.534-0.75 0.032-1.49-0.083-2.219-0.346-0.725-0.268-1.393-0.683-2.005-1.244v0c-0.607-0.557-1.075-1.185-1.403-1.884-0.324-0.704-0.505-1.434-0.541-2.189-0.032-0.75 0.086-1.488 0.353-2.212 0.263-0.729 0.675-1.4 1.237-2.011zM51.275 235.668v0c-0.741 0.807-1.248 1.646-1.519 2.515-0.271 0.869-0.303 1.709-0.095 2.519 0.208 0.81 0.651 1.526 1.328 2.148v0c0.682 0.626 1.436 1.008 2.26 1.147 0.825 0.138 1.659 0.03 2.502-0.324 0.843-0.344 1.633-0.918 2.369-1.72v0c0.732-0.797 1.234-1.631 1.505-2.5 0.276-0.865 0.313-1.705 0.109-2.52-0.203-0.815-0.646-1.536-1.328-2.162v0c-0.677-0.622-1.426-0.999-2.245-1.133-0.82-0.134-1.654-0.031-2.502 0.31-0.848 0.34-1.643 0.913-2.384 1.72z" fill="#000000" data-fill-palette-color="primary"></path><path d="M61.944 246.385l4.002-5.474 0.882 0.645-4.02 5.498c-0.768 1.05-1.108 2.057-1.022 3.023 0.091 0.96 0.606 1.784 1.545 2.471v0c0.588 0.43 1.186 0.69 1.795 0.782 0.604 0.096 1.175 0.025 1.713-0.215 0.534-0.234 0.985-0.621 1.355-1.16v0l4.256-6.287 0.89 0.651-4.701 5.961c-0.793 1.014-1.68 1.576-2.662 1.685-0.982 0.109-2.014-0.233-3.096-1.025v0c-1.17-0.856-1.836-1.866-1.998-3.03-0.161-1.164 0.192-2.339 1.061-3.525z" fill="#000000" data-fill-palette-color="primary"></path><path d="M71.582 258.372l5.659-9.774 1.874 1.085c0.984 0.57 1.629 1.222 1.934 1.958 0.303 0.726 0.24 1.461-0.189 2.202v0c-0.334 0.577-0.78 0.96-1.338 1.149-0.563 0.185-1.204 0.157-1.921-0.085v0l-0.046 0.079c0.541 0.478 0.878 1.059 1.009 1.741 0.123 0.685 0.089 1.416-0.102 2.195v0c-0.181 0.721-0.284 1.299-0.308 1.733-0.021 0.444 0.029 0.799 0.15 1.066 0.127 0.27 0.314 0.524 0.562 0.762v0l-0.046 0.08-0.574-0.333c-0.412-0.239-0.709-0.509-0.889-0.809-0.176-0.307-0.254-0.69-0.231-1.149 0.016-0.463 0.121-1.051 0.314-1.765v0c0.285-1.117 0.32-2.006 0.103-2.666-0.216-0.66-0.645-1.176-1.287-1.547v0l-0.079-0.047 0.143-0.247 0.08 0.046c1.502 0.87 2.653 0.615 3.451-0.763v0c0.788-1.361 0.478-2.449-0.931-3.264v0l-0.919-0.533-5.464 9.439z" fill="#000000" data-fill-palette-color="primary"></path><path d="M86.749 265.847v0l0.461-0.859 0.094 0.039c0.247 0.502 0.572 0.949 0.976 1.341 0.404 0.391 0.845 0.687 1.321 0.888v0c0.678 0.285 1.302 0.329 1.872 0.134 0.57-0.196 0.987-0.608 1.251-1.236v0c0.145-0.345 0.204-0.697 0.177-1.055-0.03-0.367-0.156-0.778-0.378-1.234-0.222-0.455-0.565-0.991-1.03-1.607v0c-0.324-0.424-0.619-0.855-0.886-1.292-0.276-0.433-0.459-0.884-0.551-1.351-0.101-0.463-0.044-0.949 0.17-1.457v0c0.317-0.753 0.844-1.244 1.583-1.472 0.741-0.235 1.557-0.165 2.448 0.21v0c0.395 0.166 0.804 0.39 1.225 0.67 0.424 0.274 0.73 0.529 0.92 0.763v0l-0.424 0.797-0.084-0.036c-0.306-0.853-0.902-1.465-1.787-1.837v0c-0.634-0.267-1.213-0.322-1.736-0.165-0.52 0.165-0.895 0.521-1.125 1.067v0c-0.169 0.402-0.209 0.795-0.119 1.18 0.089 0.385 0.252 0.763 0.486 1.135 0.241 0.375 0.51 0.754 0.807 1.137v0c0.337 0.445 0.657 0.897 0.959 1.356 0.299 0.465 0.499 0.956 0.6 1.47 0.107 0.518 0.033 1.081-0.223 1.69v0c-0.232 0.552-0.565 0.985-1 1.297-0.434 0.312-0.937 0.489-1.507 0.529-0.571 0.041-1.17-0.071-1.798-0.335v0c-0.395-0.166-0.839-0.412-1.33-0.736-0.5-0.321-0.957-0.665-1.372-1.031z" fill="#000000" data-fill-palette-color="primary"></path><path d="M98.172 270.685l-1.04-0.369 3.781-10.642 1.04 0.369z" fill="#000000" data-fill-palette-color="primary"></path><path d="M113.554 269.328l-2.886-0.748 0.097-0.376 3.944 1.023-1.099 4.24c-0.599 0.358-1.28 0.582-2.042 0.674-0.762 0.091-1.571 0.025-2.428-0.197v0c-0.876-0.227-1.647-0.578-2.312-1.053-0.663-0.481-1.204-1.051-1.624-1.709-0.414-0.656-0.687-1.367-0.819-2.132-0.13-0.772-0.09-1.564 0.12-2.374v0c0.21-0.811 0.559-1.518 1.046-2.124 0.489-0.612 1.074-1.104 1.754-1.475 0.687-0.37 1.436-0.602 2.248-0.694 0.813-0.099 1.658-0.034 2.534 0.193v0c0.376 0.097 0.777 0.23 1.206 0.397 0.428 0.167 0.835 0.347 1.221 0.538 0.378 0.196 0.693 0.394 0.944 0.593v0l-0.305 0.849-0.089-0.023c-0.328-0.472-0.757-0.878-1.287-1.22-0.532-0.335-1.128-0.588-1.787-0.759v0c-0.975-0.253-1.893-0.255-2.752-0.006-0.853 0.25-1.587 0.721-2.202 1.412-0.622 0.69-1.07 1.565-1.345 2.626v0c-0.275 1.061-0.308 2.044-0.1 2.949 0.202 0.903 0.615 1.671 1.238 2.305 0.63 0.635 1.433 1.078 2.408 1.331v0c0.606 0.157 1.188 0.22 1.745 0.189 0.557-0.031 1.064-0.157 1.521-0.376v0z" fill="#000000" data-fill-palette-color="primary"></path><path d="M119.627 275.814l-1.082-0.156 2.039-11.344 0.192 0.028 6.634 10.872 0.091 0.013 1.015-9.542 1.092 0.158-2.049 11.342-0.192-0.027-6.625-10.861-0.102-0.015z" fill="#000000" data-fill-palette-color="primary"></path><path d="M132.806 276.634v0c0.015-0.251 0.109-0.45 0.281-0.597 0.172-0.14 0.387-0.202 0.646-0.186v0c0.299 0.018 0.52 0.141 0.663 0.368 0.143 0.227 0.202 0.544 0.178 0.952v0c-0.032 0.53-0.195 1.015-0.488 1.454-0.293 0.439-0.683 0.804-1.171 1.095v0l-0.149-0.244c0.774-0.512 1.213-1.273 1.315-2.284v0c-0.141 0.196-0.335 0.287-0.579 0.272v0c-0.224-0.014-0.4-0.099-0.527-0.257-0.127-0.158-0.183-0.349-0.169-0.573z" fill="#000000" data-fill-palette-color="primary"></path><path d="M144.36 277.103v0l0.049-0.973 0.102-0.005c0.438 0.349 0.923 0.613 1.456 0.794 0.533 0.181 1.058 0.26 1.574 0.237v0c0.735-0.033 1.317-0.259 1.749-0.68 0.431-0.421 0.632-0.972 0.601-1.652v0c-0.017-0.374-0.114-0.717-0.291-1.03-0.185-0.319-0.475-0.637-0.87-0.953-0.396-0.316-0.935-0.654-1.619-1.012v0c-0.474-0.245-0.925-0.508-1.354-0.788-0.435-0.274-0.793-0.602-1.076-0.985-0.289-0.376-0.446-0.839-0.47-1.39v0c-0.036-0.816 0.231-1.486 0.8-2.008 0.569-0.53 1.337-0.816 2.303-0.859v0c0.428-0.019 0.893 0.008 1.394 0.082 0.5 0.066 0.886 0.165 1.158 0.296v0l-0.042 0.901-0.092 0.004c-0.642-0.639-1.442-0.938-2.401-0.895v0c-0.687 0.03-1.234 0.228-1.64 0.594-0.399 0.372-0.586 0.854-0.559 1.446v0c0.019 0.435 0.152 0.808 0.397 1.117 0.245 0.309 0.554 0.582 0.925 0.817 0.378 0.235 0.784 0.463 1.216 0.683v0c0.495 0.257 0.978 0.529 1.447 0.814 0.47 0.293 0.86 0.65 1.172 1.073 0.319 0.422 0.492 0.963 0.522 1.622v0c0.027 0.599-0.09 1.132-0.348 1.6-0.259 0.468-0.637 0.843-1.136 1.124-0.499 0.281-1.088 0.437-1.768 0.467v0c-0.428 0.019-0.934-0.013-1.517-0.096-0.589-0.076-1.15-0.191-1.682-0.345z" fill="#000000" data-fill-palette-color="primary"></path><path d="M156.914 276.47l-1.093 0.145-1.481-11.197 1.093-0.145 0.686 5.183 6.712-0.887-0.686-5.184 1.094-0.144 1.481 11.197-1.094 0.144-0.744-5.629-6.712 0.888z" fill="#000000" data-fill-palette-color="primary"></path><path d="M171.562 273.944l-1.078 0.233-2.388-11.039 1.078-0.233z" fill="#000000" data-fill-palette-color="primary"></path><path d="M178.081 272.119l-1.045 0.319-2.989-11.131 0.186-0.057 10.634 7.009 0.088-0.027-3.147-9.065 1.055-0.322 2.979 11.134-0.186 0.057-10.621-7.002-0.098 0.029z" fill="#000000" data-fill-palette-color="primary"></path><path d="M196.08 265.59l-4.596 1.9-4.316-10.437 4.548-1.881 0.305 0.736-2.749 0.728c-0.483 0.133-0.803 0.232-0.96 0.298v0l1.881 4.548c0.126-0.052 0.428-0.195 0.905-0.429v0l2.382-1.162 0.285 0.689-2.507 0.86c-0.504 0.171-0.819 0.283-0.944 0.335v0l2.064 4.992c0.176-0.073 0.476-0.23 0.899-0.471v0l2.502-1.433z" fill="#000000" data-fill-palette-color="primary"></path><path d="M208.945 258.739l-1.006 0.585-2.4-4.133-6.725-3.63 1.06-0.615 6.073 3.299 0.079-0.046-0.473-6.55 1.059-0.616-0.179 7.379z" fill="#000000" data-fill-palette-color="primary"></path><path d="M211.426 250.552v0c-0.482-0.676-0.809-1.392-0.98-2.148-0.177-0.752-0.203-1.498-0.079-2.239 0.13-0.745 0.401-1.444 0.813-2.097 0.408-0.659 0.948-1.227 1.618-1.706v0c0.676-0.482 1.392-0.809 2.148-0.98 0.752-0.177 1.498-0.203 2.239-0.079 0.741 0.124 1.44 0.39 2.099 0.799 0.653 0.412 1.221 0.956 1.704 1.632v0c0.482 0.676 0.812 1.39 0.988 2.143 0.171 0.756 0.195 1.504 0.07 2.245-0.124 0.741-0.39 1.44-0.798 2.099-0.412 0.653-0.956 1.221-1.633 1.703v0c-0.671 0.478-1.382 0.806-2.134 0.983-0.756 0.171-1.507 0.197-2.253 0.076-0.741-0.124-1.438-0.392-2.091-0.804-0.659-0.408-1.229-0.95-1.711-1.627zM212.423 249.841v0c0.636 0.892 1.352 1.561 2.146 2.006 0.794 0.445 1.609 0.65 2.445 0.615 0.836-0.036 1.628-0.32 2.376-0.854v0c0.754-0.537 1.284-1.196 1.59-1.974 0.306-0.778 0.373-1.617 0.202-2.514-0.162-0.896-0.56-1.787-1.192-2.674v0c-0.628-0.881-1.34-1.545-2.134-1.99-0.789-0.449-1.603-0.659-2.442-0.629-0.84 0.03-1.637 0.314-2.391 0.851v0c-0.748 0.534-1.273 1.188-1.573 1.962-0.301 0.775-0.373 1.612-0.216 2.512 0.157 0.9 0.553 1.796 1.189 2.689z" fill="#000000" data-fill-palette-color="primary"></path><path d="M225.118 241.623l-4.526-5.049 0.814-0.73 4.546 5.073c0.868 0.968 1.783 1.51 2.745 1.626 0.958 0.11 1.871-0.223 2.738-1v0c0.543-0.486 0.921-1.017 1.136-1.594 0.219-0.571 0.268-1.145 0.145-1.72-0.118-0.571-0.403-1.092-0.854-1.566v0l-5.269-5.466 0.821-0.736 4.859 5.834c0.828 0.986 1.194 1.97 1.096 2.953-0.097 0.983-0.645 1.922-1.644 2.817v0c-1.08 0.968-2.206 1.41-3.378 1.326-1.172-0.084-2.248-0.673-3.229-1.768z" fill="#000000" data-fill-palette-color="primary"></path><path d="M238.842 234.676l-8.391-7.559 1.448-1.609c0.761-0.845 1.533-1.341 2.316-1.487 0.773-0.146 1.479 0.067 2.116 0.641v0c0.496 0.447 0.778 0.962 0.847 1.547 0.065 0.59-0.096 1.21-0.481 1.861v0l0.068 0.062c0.58-0.43 1.218-0.64 1.913-0.628 0.695 0.022 1.404 0.206 2.126 0.555v0c0.668 0.327 1.212 0.547 1.632 0.659 0.43 0.113 0.788 0.137 1.074 0.074 0.29-0.068 0.578-0.199 0.862-0.392v0l0.068 0.062-0.444 0.493c-0.319 0.354-0.644 0.588-0.976 0.702-0.337 0.109-0.727 0.105-1.172-0.012-0.449-0.112-1.003-0.336-1.662-0.672v0c-1.034-0.51-1.896-0.728-2.587-0.653-0.69 0.075-1.284 0.388-1.78 0.939v0l-0.061 0.068-0.213-0.191 0.062-0.069c1.162-1.29 1.151-2.468-0.033-3.534v0c-1.168-1.053-2.297-0.974-3.386 0.235v0l-0.711 0.789 8.104 7.299z" fill="#000000" data-fill-palette-color="primary"></path><path d="M249.292 221.382v0l-0.745-0.628 0.059-0.084c0.543-0.137 1.047-0.363 1.513-0.678 0.467-0.314 0.847-0.684 1.142-1.109v0c0.419-0.604 0.591-1.205 0.518-1.804-0.074-0.598-0.391-1.091-0.95-1.479v0c-0.308-0.213-0.64-0.344-0.996-0.392-0.366-0.046-0.794-0.008-1.285 0.115-0.491 0.123-1.087 0.348-1.786 0.676v0c-0.482 0.229-0.964 0.429-1.447 0.599-0.481 0.18-0.96 0.267-1.435 0.26-0.474 0.003-0.938-0.153-1.391-0.467v0c-0.671-0.466-1.042-1.083-1.114-1.854-0.076-0.774 0.161-1.558 0.712-2.352v0c0.244-0.352 0.547-0.706 0.909-1.06 0.356-0.358 0.668-0.605 0.937-0.742v0l0.692 0.58-0.052 0.075c-0.897 0.123-1.62 0.579-2.167 1.368v0c-0.392 0.565-0.565 1.12-0.521 1.665 0.054 0.543 0.325 0.983 0.812 1.321v0c0.358 0.248 0.734 0.368 1.129 0.36 0.395-0.008 0.799-0.088 1.211-0.241 0.416-0.159 0.843-0.343 1.28-0.554v0c0.505-0.238 1.013-0.457 1.524-0.658 0.517-0.196 1.038-0.291 1.563-0.283 0.529 0.002 1.064 0.191 1.608 0.568v0c0.492 0.341 0.846 0.757 1.062 1.246 0.216 0.489 0.284 1.017 0.206 1.584-0.078 0.567-0.312 1.13-0.7 1.69v0c-0.244 0.352-0.576 0.735-0.995 1.149-0.418 0.423-0.848 0.799-1.293 1.129z" fill="#000000" data-fill-palette-color="primary"></path><path d="M250.53 209.859v0c-0.726-0.404-1.328-0.911-1.806-1.521-0.482-0.604-0.826-1.267-1.031-1.989-0.202-0.728-0.257-1.476-0.165-2.243 0.086-0.77 0.33-1.515 0.731-2.235v0c0.404-0.726 0.911-1.328 1.521-1.806 0.604-0.482 1.267-0.826 1.989-1.031 0.722-0.205 1.469-0.265 2.239-0.178 0.767 0.092 1.513 0.341 2.239 0.745v0c0.726 0.404 1.329 0.908 1.811 1.512 0.479 0.61 0.821 1.276 1.026 1.998 0.205 0.722 0.265 1.469 0.178 2.238-0.092 0.767-0.341 1.513-0.745 2.239v0c-0.401 0.72-0.903 1.32-1.507 1.802-0.61 0.479-1.277 0.824-2.003 1.035-0.722 0.205-1.467 0.262-2.234 0.17-0.77-0.086-1.518-0.332-2.243-0.736zM251.126 208.788v0c0.957 0.534 1.89 0.831 2.799 0.894 0.908 0.062 1.733-0.102 2.473-0.493 0.74-0.39 1.333-0.987 1.78-1.79v0c0.451-0.809 0.648-1.63 0.591-2.465-0.057-0.835-0.356-1.621-0.896-2.358-0.531-0.74-1.272-1.375-2.223-1.905v0c-0.946-0.527-1.873-0.821-2.781-0.884-0.905-0.068-1.731 0.092-2.476 0.479-0.746 0.387-1.344 0.985-1.795 1.794v0c-0.447 0.803-0.641 1.619-0.58 2.447 0.06 0.829 0.354 1.616 0.881 2.362 0.527 0.746 1.27 1.386 2.227 1.919z" fill="#000000" data-fill-palette-color="primary"></path><path d="M259.074 195.924l-6.252-2.624 0.422-1.008 6.281 2.636c1.199 0.503 2.258 0.601 3.177 0.293 0.913-0.311 1.595-1.003 2.046-2.077v0c0.282-0.672 0.396-1.314 0.344-1.926-0.047-0.61-0.249-1.149-0.607-1.617-0.351-0.465-0.832-0.814-1.442-1.048v0l-7.103-2.683 0.427-1.017 6.889 3.191c1.171 0.536 1.923 1.268 2.256 2.198 0.333 0.93 0.24 2.013-0.279 3.25v0c-0.561 1.337-1.389 2.219-2.483 2.646-1.095 0.427-2.32 0.355-3.676-0.214z" fill="#000000" data-fill-palette-color="primary"></path><path d="M268.504 183.851l-10.774-3.388 0.331-1.052 10.462 3.29c0.061-0.195 0.129-0.513 0.203-0.953v0l0.413-2.674 0.79 0.248z" fill="#000000" data-fill-palette-color="primary"></path></g></svg></g></svg></g></svg></g></svg></g><defs></defs></svg><rect width="279.72" height="279.72" fill="none" stroke="none" visibility="hidden"></rect></g></svg></g></svg>